<svg height="512pt" viewBox="0 -33 512 512" width="512pt" xmlns="http://www.w3.org/2000/svg"><path d="m487.933594 438.234375-168.640625-321.214844c-2.246094-4.28125-8.378907-4.28125-10.625 0l-32.097657 61.140625 29.761719 260.074219zm0 0" fill="#40c75b"/><path d="m377.941406 228.730469-27.574218 16.984375c-1.984376 1.222656-4.496094 1.1875-6.441407-.09375l-34.625-22.753906-32.730469-44.707032 32.097657-61.140625c2.246093-4.28125 8.378906-4.28125 10.625 0zm0 0" fill="#d9e7ec"/><path d="m421.667969 438.234375-193.484375-370.835937c-2.242188-4.300782-8.394532-4.300782-10.636719 0l-193.480469 370.835937zm0 0" fill="#65db55"/><path d="m296.335938 198.019531-36.859376 22.707031c-2.097656 1.292969-4.773437 1.171876-6.746093-.308593l-26.265625-19.699219c-2.132813-1.597656-5.066406-1.597656-7.199219 0l-26.265625 19.699219c-1.972656 1.480469-4.648438 1.601562-6.746094.308593l-36.859375-22.707031 68.152344-130.621093c2.242187-4.296876 8.394531-4.296876 10.640625 0zm0 0" fill="#f2f7fb"/><path d="m40.628906 65.484375v-16.566406c0-22.875 18.542969-41.417969 41.417969-41.417969 12.371094 0 23.46875 5.429688 31.054687 14.027344 5.3125-3.621094 11.734376-5.742188 18.648438-5.742188 18.296875 0 33.132812 14.832032 33.132812 33.132813v16.566406zm0 0" fill="#d9e7ec"/><path d="m131.75 15.78125c-3.484375 0-6.84375.542969-10 1.542969 13.410156 4.238281 19.132812 16.78125 19.132812 31.59375v16.566406h24v-16.566406c0-18.300781-14.832031-33.136719-33.132812-33.136719zm0 0" fill="#aad4ec"/><path d="m363.683594 123.46875v-16.566406c0-22.875 18.542968-41.417969 41.417968-41.417969 12.371094 0 23.464844 5.429687 31.054688 14.027344 5.3125-3.621094 11.730469-5.742188 18.644531-5.742188 18.300781 0 33.136719 14.832031 33.136719 33.132813v16.566406zm0 0" fill="#d9e7ec"/><path d="m454.800781 73.769531c-3.496093 0-6.863281.542969-10.027343 1.546875 13.394531 4.253906 19.101562 16.785156 19.101562 31.585938v16.566406h24.0625v-16.566406c0-18.300782-14.835938-33.132813-33.136719-33.132813zm0 0" fill="#aad4ec"/><path d="m318.835938 355.96875-24.6875-55.542969c-1.929688-4.347656-8.101563-4.347656-10.035157 0l-24.683593 55.542969c-1.613282 3.628906 1.042968 7.71875 5.015624 7.71875h.011719c3.882813 0 6.539063 3.921875 5.097657 7.527344l-10.542969 26.355468c-1.445313 3.609376 1.210937 7.53125 5.097656 7.53125h50.046875c3.882812 0 6.539062-3.921874 5.097656-7.53125l-10.542968-26.355468c-1.445313-3.605469 1.210937-7.527344 5.097656-7.527344h.007812c3.976563 0 6.632813-4.089844 5.019532-7.71875zm0 0" fill="#40c75b"/><path d="m186.300781 355.96875-24.6875-55.542969c-1.929687-4.347656-8.101562-4.347656-10.03125 0l-24.6875 55.542969c-1.613281 3.628906 1.046875 7.71875 5.019531 7.71875h.007813c3.886719 0 6.542969 3.921875 5.097656 7.527344l-10.542969 26.355468c-1.441406 3.609376 1.214844 7.53125 5.097657 7.53125h50.046875c3.886718 0 6.542968-3.921874 5.097656-7.53125l-10.542969-26.355468c-1.441406-3.605469 1.214844-7.527344 5.097657-7.527344h.011718c3.972656 0 6.628906-4.089844 5.015625-7.71875zm0 0" fill="#40c75b"/><path d="m504.5 430.738281h-12.03125l-171.847656-327.324219c-1.296875-2.46875-3.851563-4.011718-6.640625-4.011718-2.789063 0-5.34375 1.542968-6.640625 4.011718l-26.03125 49.585938-51.792969-99.265625c-1.292969-2.476563-3.855469-4.03125-6.648437-4.03125-2.796876 0-5.355469 1.554687-6.648438 4.03125l-33.097656 63.433594c-1.917969 3.671875-.492188 8.203125 3.179687 10.117187 3.671875 1.917969 8.203125.496094 10.117188-3.179687l26.449219-50.6875 63.589843 121.878906-30.042969 18.507813-29.050781-21.785157c-2.664062-2-6.332031-2-9 0l-29.046875 21.785157-30.042968-18.507813 22.75-43.601563c1.917968-3.671874.492187-8.203124-3.179688-10.121093-3.667969-1.914063-8.203125-.492188-10.117188 3.179687l-149.207031 285.984375h-12.019531c-4.144531 0-7.5 3.359375-7.5 7.5s3.355469 7.5 7.5 7.5h497c4.144531 0 7.5-3.359375 7.5-7.5s-3.355469-7.5-7.5-7.5zm-190.519531-307.703125 54.066406 102.980469-20.800781 12.8125-32.195313-21.15625-25.300781-48.488281zm-161.660157 85.59375 33.476563 20.625c2.625 1.617188 5.972656 1.460938 8.433594-.386718l28.636719-21.472657 28.632812 21.472657c1.328125.996093 2.910156 1.5 4.5 1.5 1.359375 0 2.722656-.367188 3.933594-1.113282l33.480468-20.625 9.265626 17.753906c.007812.019532.015624.035157.027343.054688l25.878907 49.601562c1.339843 2.566407 3.949218 4.03125 6.65625 4.03125 1.167968 0 2.355468-.273437 3.464843-.851562 3.671875-1.914062 5.09375-6.445312 3.179688-10.117188l-12.582031-24.117187 13.695312 9c1.246094.824219 2.683594 1.234375 4.117188 1.234375 1.363281 0 2.726562-.371094 3.933593-1.113281l23.984375-14.777344 100.492188 191.410156h-178.894532v-18.140625h25.632813c2.488281 0 4.816406-1.234375 6.210937-3.292968 1.394532-2.0625 1.679688-4.679688.753907-6.992188l-12.453125-31.125h5.488281c2.539063 0 4.90625-1.285156 6.289063-3.414062 1.382812-2.128907 1.597656-4.8125.566406-7.132813l-33.136719-74.550781c-1.203125-2.707032-3.890625-4.453125-6.851563-4.453125-2.964843 0-5.652343 1.746093-6.855468 4.453125l-33.132813 74.550781c-1.03125 2.320313-.820312 5.003906.566407 7.132813 1.382812 2.128906 3.75 3.414062 6.285156 3.414062h5.492187l-12.453125 31.125c-.925781 2.3125-.644531 4.929688.75 6.992188 1.398438 2.058593 3.726563 3.292968 6.210938 3.292968h25.636718v18.140625h-117.535156v-18.140625h25.636719c2.488281 0 4.816406-1.234375 6.210937-3.292968 1.394532-2.0625 1.675782-4.679688.753907-6.992188l-12.457031-31.125h5.492187c2.539063 0 4.90625-1.285156 6.289063-3.414062 1.382812-2.128907 1.59375-4.8125.5625-7.132813l-33.132813-74.550781c-1.207031-2.707032-3.890625-4.453125-6.855469-4.453125s-5.648437 1.746093-6.855468 4.453125l-33.132813 74.550781c-1.03125 2.320313-.816406 5.003906.566406 7.132813 1.382813 2.128906 3.75 3.414062 6.289063 3.414062h5.488281l-12.453125 31.125c-.921875 2.3125-.640625 4.929688.753906 6.992188 1.394532 2.058593 3.722656 3.292968 6.210938 3.292968h25.632812v18.140625h-112.660156zm126.457032 150.851563c-1.394532-2.058594-3.722656-3.292969-6.210938-3.292969h-5.027344l21.59375-48.582031 21.59375 48.582031h-5.027343c-2.488281 0-4.816407 1.234375-6.210938 3.292969-1.394531 2.0625-1.675781 4.679687-.753906 6.992187l12.453125 31.128906h-44.109375l12.453125-31.128906c.921875-2.3125.640625-4.929687-.753906-6.992187zm-132.535156 0c-1.394532-2.058594-3.722657-3.292969-6.210938-3.292969h-5.023438l21.589844-48.582031 21.59375 48.582031h-5.027344c-2.484374 0-4.8125 1.234375-6.210937 3.292969-1.394531 2.0625-1.675781 4.679687-.75 6.992187l12.453125 31.128906h-44.109375l12.449219-31.128906c.925781-2.3125.644531-4.929687-.753906-6.992187zm0 0"/><path d="m32.347656 72.984375h140.820313c4.140625 0 7.5-3.355469 7.5-7.5 0-4.140625-3.359375-7.5-7.5-7.5h-.785157v-9.066406c0-22.40625-18.226562-40.632813-40.632812-40.632813-6.078125 0-11.996094 1.335938-17.402344 3.90625-8.882812-7.808594-20.355468-12.191406-32.300781-12.191406-26.972656 0-48.914063 21.945312-48.914063 48.917969v9.066406h-.785156c-4.144531 0-7.5 3.359375-7.5 7.5 0 4.144531 3.355469 7.5 7.5 7.5zm15.785156-24.066406c0-18.703125 15.214844-33.917969 33.914063-33.917969 9.71875 0 18.988281 4.1875 25.433594 11.492188 2.503906 2.832031 6.726562 3.363281 9.847656 1.230468 4.261719-2.902344 9.246094-4.4375 14.421875-4.4375 14.136719 0 25.636719 11.496094 25.636719 25.632813v9.066406h-109.253907zm0 0"/><path d="m355.398438 130.96875h140.820312c4.144531 0 7.5-3.359375 7.5-7.5s-3.355469-7.5-7.5-7.5h-.78125v-9.066406c0-22.40625-18.226562-40.632813-40.632812-40.632813-6.082032 0-11.996094 1.335938-17.40625 3.90625-8.878907-7.808593-20.351563-12.191406-32.296876-12.191406-26.972656 0-48.917968 21.945313-48.917968 48.917969v9.066406h-.785156c-4.140626 0-7.5 3.359375-7.5 7.5s3.359374 7.5 7.5 7.5zm15.785156-24.066406c0-18.703125 15.214844-33.917969 33.917968-33.917969 9.71875 0 18.988282 4.1875 25.433594 11.492187 2.5 2.832032 6.722656 3.363282 9.847656 1.230469 4.261719-2.902343 9.246094-4.4375 14.421876-4.4375 14.132812 0 25.632812 11.496094 25.632812 25.632813v9.066406h-109.253906zm0 0"/></svg>